<?xml version="1.0" standalone="no"?>
<!DOCTYPE svg PUBLIC "-//W3C//DTD SVG 20010904//EN"
 "http://www.w3.org/TR/2001/REC-SVG-20010904/DTD/svg10.dtd">
<svg version="1.0" xmlns="http://www.w3.org/2000/svg"
 width="134.000000pt" height="61.000000pt" viewBox="0 0 134.000000 61.000000"
 preserveAspectRatio="xMidYMid meet">

<g transform="translate(0.000000,61.000000) scale(0.100000,-0.100000)"
fill="#000000" stroke="none">
<path d="M172 564 c-57 -28 -101 -73 -134 -137 -17 -32 -22 -60 -22 -119 -1
-42 2 -79 6 -83 10 -10 49 5 42 16 -11 19 -5 117 11 155 24 58 90 121 148 140
97 32 213 -2 273 -81 41 -55 73 -183 42 -173 -7 3 -16 28 -19 57 -15 120 -130
205 -254 187 -103 -16 -185 -114 -185 -221 0 -29 2 -54 5 -57 3 -2 27 2 55 11
47 14 50 17 50 48 0 24 10 44 34 70 28 31 41 38 73 38 22 0 52 -8 67 -18 30
-20 54 -63 41 -75 -4 -4 -10 -1 -13 7 -12 34 -51 61 -89 61 -42 -1 -63 -13
-81 -47 -21 -38 -15 -63 13 -63 19 0 25 5 25 23 0 47 47 63 74 26 8 -12 12
-27 10 -33 -3 -7 16 -15 51 -22 53 -9 56 -9 61 12 14 53 -31 131 -93 163 -32
16 -93 13 -133 -7 -39 -19 -80 -74 -80 -107 0 -13 -7 -25 -15 -29 -21 -7 -19
19 4 69 33 72 86 105 167 105 99 0 174 -79 174 -183 0 -41 2 -43 49 -63 l49
-22 6 22 c11 40 6 122 -10 169 -21 62 -87 135 -149 163 -73 34 -182 34 -253
-2z"/>
<path d="M780 441 c0 -41 4 -71 10 -71 6 0 10 9 10 20 0 28 45 27 60 -1 7 -11
14 -18 17 -15 3 3 0 12 -7 21 -10 13 -10 19 4 33 34 39 13 70 -54 79 l-40 6 0
-72z m88 37 c7 -7 12 -15 12 -19 0 -16 -33 -39 -56 -39 -21 0 -24 5 -24 35 0
32 3 35 28 35 15 0 33 -5 40 -12z"/>
<path d="M1040 503 c-50 -18 -68 -84 -32 -116 20 -19 68 -22 92 -7 10 6 3 8
-23 3 -44 -7 -77 16 -77 53 0 37 28 57 73 51 22 -3 36 -2 31 3 -14 12 -47 19
-64 13z"/>
<path d="M1210 440 c0 -38 4 -70 9 -70 12 0 18 37 13 93 -6 72 -22 56 -22 -23z"/>
<path d="M1275 474 l-30 -36 32 -34 c41 -44 51 -44 19 -1 -32 42 -32 45 1 79
15 15 23 28 17 28 -5 0 -23 -17 -39 -36z"/>
<path d="M193 245 c-34 -7 -82 -23 -108 -34 -46 -20 -46 -20 -31 -48 19 -36
82 -96 126 -119 26 -14 56 -19 120 -19 94 0 137 16 201 76 l34 32 -65 25 c-55
22 -81 26 -170 26 -118 0 -174 -15 -149 -39 11 -12 22 -13 49 -5 73 21 265 3
257 -24 -2 -6 -23 -21 -47 -33 -52 -27 -151 -31 -204 -9 -34 14 -116 82 -116
96 0 4 26 16 58 26 84 28 237 25 317 -4 76 -29 89 -30 92 -12 7 29 -169 81
-267 79 -19 0 -63 -7 -97 -14z"/>
<path d="M780 175 l0 -65 45 0 c75 0 111 59 65 108 -15 16 -32 22 -65 22 l-45
0 0 -65z m91 45 c13 -7 19 -21 19 -43 0 -42 -15 -57 -57 -57 l-33 0 0 55 c0
52 1 55 26 55 14 0 34 -5 45 -10z"/>
<path d="M1012 188 c-2 -52 1 -59 24 -75 24 -15 29 -15 53 -2 23 13 26 21 27
74 1 33 0 42 -3 20 -7 -76 -11 -85 -42 -85 -38 0 -49 16 -54 75 l-3 50 -2 -57z"/>
<path d="M216 111 c-7 -10 76 -31 102 -26 60 12 72 17 67 25 -8 13 -162 13
-169 1z"/>
</g>
</svg>
