<svg width="187" height="56" viewBox="0 0 187 56" fill="none" xmlns="http://www.w3.org/2000/svg">
<path fill-rule="evenodd" clip-rule="evenodd" d="M6.10674 0H6.69104L16.0513 19.8332L25.0092 0H25.5956L31.8843 25.3112H28.0455L23.3287 6.56281L14.9912 25.3112H14.5166L5.66722 6.56281L1.53573 25.3112H0L6.10674 0ZM45.5973 14.831L41.2435 25.3112H39.6726L50.7505 0H51.3359L62.4149 25.3112H58.3568L53.7848 14.831H45.5973ZM49.6172 5.22046L46.1434 13.561H53.2378L49.6172 5.22046ZM76.0895 25.3112H72.3603V25.3101V0.651524H76.0895V25.3112ZM86.9132 20.0886L88.2297 19.7991V19.798C88.9981 23.6782 91.9589 24.5852 94.5184 24.5852C97.6644 24.5852 99.4183 22.4817 99.4183 19.9066C99.4183 17.6232 98.3583 16.3532 95.9818 14.9033C95.297 14.4748 94.6466 14.0996 93.9826 13.7165C93.6898 13.5477 93.3945 13.3773 93.0923 13.2001C90.7903 11.8567 88.0828 9.86283 88.0828 6.12742C88.0828 2.71985 90.6786 0 95.2496 0C97.7357 0 101.027 1.1986 101.759 4.9309L100.442 5.22046C99.9664 2.50164 97.6271 1.23272 95.2868 1.23272C92.69 1.23272 91.1553 2.8636 91.1553 5.07568C91.1553 7.10574 92.2153 8.19472 94.0437 9.24646C95.3625 10.0498 96.6813 10.8239 98.144 11.6826L98.5041 11.8939C100.991 13.379 102.819 15.3739 102.819 18.5291C102.819 22.9171 99.5279 25.8541 94.4822 25.8541C90.9361 25.8541 87.7178 24.2232 86.9132 20.0886ZM129.109 0.650492V1.92148H121.503V25.3112H117.774V1.92148H110.169V0.650492H129.109ZM142.236 25.3112H138.507V0.650492H146.185C150.171 0.650492 153.423 2.42822 153.423 6.52661C153.423 10.2238 150.39 12.1835 147.574 12.6902L157.3 25.3112H152.875L143.479 13.0181H142.236V25.3112ZM149.804 6.45422C149.804 3.19143 147.317 1.92148 144.54 1.92148V1.92044H142.236V11.7491H144.613C147.099 11.7491 149.804 10.2238 149.804 6.45422ZM169.33 14.831L164.979 25.3112H164.978H163.406L174.485 0H175.071L186.15 25.3112H182.092L177.521 14.831H169.33ZM173.352 5.22046L169.879 13.561H176.971L173.352 5.22046ZM12.2343 55.8449V51.2222H17.2138V55.8449H18.4703V45.7618H17.2138V50.0897H12.2343V45.7618H10.9778V55.8449H12.2343ZM27.0073 56C29.8461 56 31.6611 53.8283 31.6611 50.8188C31.6611 47.5147 30.0322 45.6222 27.0849 45.6222C24.184 45.6222 22.4622 47.8094 22.4622 50.8499C22.4622 54.0299 24.0289 56 27.0073 56ZM27.0073 54.9141C24.6804 54.9141 23.7962 53.3629 23.7962 50.8499C23.7962 48.2127 24.8045 46.708 27.0849 46.708C29.3497 46.708 30.3115 48.1972 30.3115 50.8188C30.3115 53.2853 29.2411 54.9141 27.0073 54.9141ZM37.9177 56C39.8102 56 41.3305 54.8831 41.3305 53.2233C41.3305 51.3075 39.863 50.6816 38.5391 50.1169C37.4509 49.6527 36.4595 49.2299 36.4595 48.1662C36.4595 47.2665 37.1731 46.708 38.321 46.708C39.1742 46.708 40.0739 47.1114 40.5393 47.5457L40.9271 46.3047C40.2911 45.9324 39.3759 45.6222 38.2435 45.6222C36.4906 45.6222 35.141 46.6925 35.141 48.2748C35.141 50.0272 36.5068 50.6189 37.7896 51.1747C38.9255 51.6668 39.9964 52.1308 39.9964 53.3474C39.9964 54.4177 38.9571 54.9296 37.9332 54.9296C37.0025 54.9296 35.9476 54.3867 35.3737 53.8903L34.9548 55.1313C35.6064 55.5346 36.6922 56 37.9177 56ZM46.4394 55.8449V52.277H48.2699C50.302 52.277 51.6826 51.0515 51.6826 48.9884C51.6826 46.9717 50.7208 45.7618 48.1613 45.7618H45.1829V55.8449H46.4394ZM48.1921 51.2066H46.4392V46.8632H48.1301C49.7279 46.8632 50.3484 47.5922 50.3484 49.0504C50.3484 50.6327 49.4331 51.2066 48.1921 51.2066ZM56.6207 55.8449V45.7618H55.3642V55.8449H56.6207ZM64.413 55.8449V46.8632H67.5465V45.7618H60.0075V46.8632H63.1565V55.8449H64.413ZM70.3439 55.8449L71.2592 53.1767H75.3855L76.3163 55.8449H77.6503L74.0204 45.7618H72.6863L69.0719 55.8449H70.3439ZM75.0132 52.1374H71.616L72.5932 49.3296L73.3068 47.0338L74.0359 49.3141L75.0132 52.1374ZM86.6062 55.8449V54.7435H82.2627V45.7618H81.0062V55.8449H86.6062ZM91.234 55.8449V45.7618H89.9775V55.8449H91.234ZM99.0264 55.8449V46.8632H102.16V45.7618H94.6208V46.8632H97.7699V55.8449H99.0264ZM109.006 55.8449V51.9512L112.202 45.7618H110.945L109.658 48.3368L108.417 50.9274L107.067 48.3213L105.671 45.7618H104.321L107.75 51.9512V55.8449H109.006ZM124.498 56C125.739 56 126.964 55.5036 127.662 55.0227V50.8499H126.422V54.5263C125.941 54.7435 125.351 54.9141 124.669 54.9141C122.559 54.9141 121.085 53.8748 121.085 50.8343C121.085 47.9645 122.419 46.708 124.684 46.708C125.522 46.708 126.437 47.0183 127.058 47.4992L127.492 46.2737C126.871 45.9324 125.863 45.6222 124.7 45.6222C121.938 45.6222 119.736 47.2665 119.736 50.8654C119.736 54.6814 121.907 56 124.498 56ZM133.516 51.9357V55.8449H132.259V45.7618H135.145C137.704 45.7618 138.681 46.8321 138.681 48.8487C138.681 50.2449 137.968 51.2377 136.82 51.672L139.286 55.8449H137.797L135.563 51.9357H133.516ZM133.516 50.8499H135.176C136.401 50.8499 137.348 50.4 137.348 48.8953C137.348 47.4061 136.696 46.8632 135.114 46.8632H133.516V50.8499ZM151.609 50.8188C151.609 53.8283 149.794 56 146.955 56C143.977 56 142.41 54.0299 142.41 50.8499C142.41 47.8094 144.132 45.6222 147.033 45.6222C149.98 45.6222 151.609 47.5147 151.609 50.8188ZM143.744 50.8499C143.744 53.3629 144.628 54.9141 146.955 54.9141C149.189 54.9141 150.259 53.2853 150.259 50.8188C150.259 48.1972 149.297 46.708 147.033 46.708C144.752 46.708 143.744 48.2127 143.744 50.8499ZM163.341 52.0753C163.341 54.4022 162.193 56 159.386 56C156.562 56 155.476 54.6349 155.476 52.1994V45.7618H156.733V52.0598C156.733 54.2471 157.571 54.9296 159.417 54.9296C161.294 54.9296 162.1 54.0765 162.1 51.9512V45.7618H163.341V52.0753ZM169.04 52.277V55.8449H167.783V45.7618H170.761C173.321 45.7618 174.283 46.9717 174.283 48.9884C174.283 51.0515 172.902 52.277 170.87 52.277H169.04ZM169.039 51.2066H170.792C172.033 51.2066 172.949 50.6327 172.949 49.0504C172.949 47.5922 172.328 46.8632 170.73 46.8632H169.039V51.2066Z" fill="white"/>
</svg>
