<?xml version="1.0" standalone="no"?>
<!DOCTYPE svg PUBLIC "-//W3C//DTD SVG 20010904//EN"
 "http://www.w3.org/TR/2001/REC-SVG-20010904/DTD/svg10.dtd">
<svg version="1.0" xmlns="http://www.w3.org/2000/svg"
 width="225.000000pt" height="225.000000pt" viewBox="0 0 225.000000 225.000000"
 preserveAspectRatio="xMidYMid meet">

<g transform="translate(0.000000,225.000000) scale(0.100000,-0.100000)"
fill="#000000" stroke="none">
<path d="M0 1125 l0 -1125 1125 0 1125 0 0 1125 0 1125 -1125 0 -1125 0 0
-1125z m1164 285 c15 -5 26 -17 26 -27 -1 -17 -1 -17 -11 0 -13 22 -58 22 -66
0 -4 -10 2 -23 19 -37 14 -12 35 -29 47 -38 45 -37 14 -108 -46 -108 -24 0
-69 37 -59 48 4 3 12 -2 19 -12 9 -12 23 -17 42 -14 24 2 31 8 33 30 3 21 -3
30 -27 43 -38 19 -65 58 -57 83 5 15 26 31 53 41 1 1 13 -3 27 -9z m-697 -77
l37 -76 34 76 c19 42 38 77 41 77 3 0 14 -35 24 -77 9 -43 20 -88 23 -100 5
-17 2 -23 -9 -23 -16 0 -24 20 -45 110 l-9 35 -35 -75 -36 -75 -34 75 c-38 81
-36 81 -58 -17 -7 -29 -16 -53 -20 -53 -4 0 4 45 17 100 14 55 27 100 30 100
2 0 20 -35 40 -77z m372 -30 c34 -81 37 -93 22 -93 -11 0 -25 15 -36 40 -16
35 -22 40 -50 40 -29 0 -35 -5 -50 -42 -10 -24 -19 -38 -22 -32 -2 6 10 42 28
80 17 38 35 80 40 93 13 32 20 23 68 -86z m151 7 c0 -82 -3 -100 -15 -100 -12
0 -15 18 -15 100 0 82 3 100 15 100 12 0 15 -18 15 -100z m403 93 l-33 -4 0
-95 c0 -87 -1 -94 -20 -94 -19 0 -20 7 -20 94 l0 95 -32 4 c-18 2 5 4 52 4 47
0 70 -2 53 -4z m198 -3 c26 -15 26 -66 -1 -80 -20 -11 -20 -13 15 -61 33 -44
35 -49 17 -49 -13 0 -35 19 -59 52 l-38 53 -3 -53 c-2 -37 -7 -52 -18 -52 -11
0 -14 19 -14 100 l0 100 41 0 c22 0 49 -5 60 -10z m242 -92 c42 -99 42 -98 21
-98 -9 0 -22 17 -31 40 -14 36 -20 40 -50 40 -29 0 -35 -4 -49 -40 -9 -22 -20
-40 -25 -40 -7 0 43 127 71 181 15 27 19 22 63 -83z m-1044 -265 c0 -21 -3
-32 -6 -25 -2 6 -11 12 -18 12 -7 0 -16 -6 -18 -12 -3 -7 -5 3 -5 22 0 19 2
29 5 23 7 -18 33 -16 33 2 0 8 2 15 5 15 3 0 5 -17 4 -37z m89 25 c32 -32 -7
-80 -44 -54 -16 12 -16 18 -6 40 12 28 31 33 50 14z m77 2 c3 -5 -2 -10 -12
-10 -17 -1 -17 -1 0 -11 9 -5 17 -16 17 -23 0 -17 -27 -29 -35 -16 -4 6 2 10
12 10 17 1 17 1 -1 15 -11 8 -16 21 -13 30 7 17 23 20 32 5z m69 4 c22 -8 20
-26 -4 -47 -27 -23 -30 -22 -30 11 0 39 7 46 34 36z m129 -26 c-3 -18 -7 -35
-9 -37 -6 -7 -11 2 -17 37 -6 27 -4 32 13 32 17 0 19 -5 13 -32z m270 0 c-3
-18 -7 -35 -9 -37 -6 -7 -11 2 -17 37 -6 27 -4 32 13 32 17 0 19 -5 13 -32z
m71 18 c4 9 9 15 11 12 3 -3 -1 -20 -8 -38 -12 -26 -15 -29 -19 -14 -3 11 -9
28 -13 39 -6 19 -6 19 8 2 14 -16 15 -16 21 -1z m-417 -43 c-3 -10 -5 -2 -5
17 0 19 2 27 5 18 2 -10 2 -26 0 -35z m153 21 c6 -14 10 -26 10 -27 0 -1 -13
-2 -29 -3 -28 -1 -28 0 -19 27 12 36 26 37 38 3z m52 1 c-3 -18 0 -25 12 -25
9 0 16 -5 16 -11 0 -6 -7 -8 -16 -5 -9 3 -18 6 -20 6 -2 0 -4 14 -4 30 0 17 4
30 9 30 4 0 6 -11 3 -25z m65 -22 c-3 -10 -5 -2 -5 17 0 19 2 27 5 18 2 -10 2
-26 0 -35z m-367 -122 c0 -5 -8 -8 -17 -7 -12 0 -19 -7 -21 -21 -4 -25 22 -33
31 -10 3 7 6 5 6 -5 1 -13 -7 -18 -23 -18 -28 0 -40 24 -26 51 11 19 50 27 50
10z m77 -29 c1 -27 -1 -31 -13 -21 -10 8 -14 8 -14 0 0 -6 -4 -11 -10 -11 -5
0 -10 16 -10 36 0 31 3 35 23 32 17 -2 22 -10 24 -36z m93 17 c14 -26 -4 -51
-34 -47 -24 4 -33 33 -16 53 17 21 37 19 50 -6z m65 -39 c8 0 15 14 18 33 4
31 4 31 5 -5 2 -34 0 -38 -23 -38 -23 0 -25 4 -23 38 1 36 1 36 5 5 3 -19 10
-33 18 -33z m102 49 c14 -14 6 -39 -12 -39 -7 0 -16 -6 -18 -12 -3 -7 -6 4 -6
25 -1 38 14 48 36 26z"/>
<path d="M762 1335 c-11 -23 -10 -25 14 -25 22 0 24 2 13 23 -6 12 -13 23 -14
25 -1 1 -7 -9 -13 -23z"/>
<path d="M1520 1360 c0 -32 4 -40 18 -40 41 0 57 51 23 70 -33 17 -41 11 -41
-30z"/>
<path d="M1760 1341 c-14 -27 -9 -34 18 -29 19 3 19 5 8 27 l-13 24 -13 -22z"/>
<path d="M840 1040 c0 -11 7 -20 15 -20 8 0 15 9 15 20 0 11 -7 20 -15 20 -8
0 -15 -9 -15 -20z"/>
<path d="M1010 1049 c0 -5 5 -7 10 -4 6 3 10 8 10 11 0 2 -4 4 -10 4 -5 0 -10
-5 -10 -11z"/>
<path d="M1030 884 c0 -8 5 -12 10 -9 6 4 8 11 5 16 -9 14 -15 11 -15 -7z"/>
<path d="M1108 888 c-7 -19 2 -38 19 -38 9 0 13 8 11 22 -3 25 -23 35 -30 16z"/>
<path d="M1290 885 c0 -8 5 -15 10 -15 6 0 10 7 10 15 0 8 -4 15 -10 15 -5 0
-10 -7 -10 -15z"/>
</g>
</svg>
