<svg xmlns="http://www.w3.org/2000/svg" viewBox="0 0 64 64"><title>Artboard-22</title><g id="Hotel"><path d="M28.5576,7.0977l-.47,2.74a1,1,0,0,0,1.4512,1.0537L32,9.5986l2.4614,1.293a1,1,0,0,0,1.4512-1.0537l-.47-2.74,1.9907-1.9414a.9994.9994,0,0,0-.5537-1.7051l-2.752-.4L32.8965.5576a1.04,1.04,0,0,0-1.793,0L29.8726,3.0508l-2.752.4a.9994.9994,0,0,0-.5537,1.7051Z" style="fill:#1b1b1e"/><path d="M42.5576,12.0977l-.47,2.74a1,1,0,0,0,1.4512,1.0537L46,14.5986l2.4614,1.293a1,1,0,0,0,1.4512-1.0537l-.47-2.74,1.9907-1.9414a.9994.9994,0,0,0-.5537-1.7051l-2.752-.4L46.8965,5.5576a1.04,1.04,0,0,0-1.793,0L43.8726,8.0508l-2.752.4a.9994.9994,0,0,0-.5537,1.7051Z" style="fill:#1b1b1e"/><path d="M54.5576,19.0977l-.47,2.74a1,1,0,0,0,1.4512,1.0537L58,21.5986l2.4614,1.293a1,1,0,0,0,1.4512-1.0537l-.47-2.74,1.9907-1.9414a.9994.9994,0,0,0-.5537-1.7051l-2.752-.4-1.2309-2.4932a1.04,1.04,0,0,0-1.793,0l-1.2309,2.4932-2.752.4a.9994.9994,0,0,0-.5537,1.7051Z" style="fill:#1b1b1e"/><path d="M14.5576,12.0977l-.47,2.74a1,1,0,0,0,1.4512,1.0537L18,14.5986l2.4614,1.293a1,1,0,0,0,1.4512-1.0537l-.47-2.74,1.9907-1.9414a.9994.9994,0,0,0-.5537-1.7051l-2.752-.4L18.8965,5.5576a1.04,1.04,0,0,0-1.793,0L15.8726,8.0508l-2.752.4a.9994.9994,0,0,0-.5537,1.7051Z" style="fill:#1b1b1e"/><path d="M2.5576,19.0977l-.47,2.74a1,1,0,0,0,1.4512,1.0537L6,21.5986l2.4614,1.293a1,1,0,0,0,1.4512-1.0537l-.47-2.74,1.9907-1.9414a.9994.9994,0,0,0-.5537-1.7051l-2.752-.4L6.8965,12.5576a1.04,1.04,0,0,0-1.793,0L3.8726,15.0508l-2.752.4a.9994.9994,0,0,0-.5537,1.7051Z" style="fill:#1b1b1e"/><path d="M63,62h0V29h0a1,1,0,0,0,0-2H46V62H44V19a1,1,0,0,0-1-1H21a1,1,0,0,0-1,1V62H18V27H1a1,1,0,0,0,0,2H1V62H1a1,1,0,0,0,0,2H63a1,1,0,0,0,0-2ZM55,33a1,1,0,0,1,1-1h4a1,1,0,0,1,1,1v4a1,1,0,0,1-1,1H56a1,1,0,0,1-1-1Zm0,7a1,1,0,0,1,1-1h4a1,1,0,0,1,1,1v4a1,1,0,0,1-1,1H56a1,1,0,0,1-1-1Zm0,7a1,1,0,0,1,1-1h4a1,1,0,0,1,1,1v4a1,1,0,0,1-1,1H56a1,1,0,0,1-1-1Zm0,7a1,1,0,0,1,1-1h4a1,1,0,0,1,1,1v4a1,1,0,0,1-1,1H56a1,1,0,0,1-1-1ZM48,33a1,1,0,0,1,1-1h4a1,1,0,0,1,1,1v4a1,1,0,0,1-1,1H49a1,1,0,0,1-1-1Zm0,7a1,1,0,0,1,1-1h4a1,1,0,0,1,1,1v4a1,1,0,0,1-1,1H49a1,1,0,0,1-1-1Zm0,7a1,1,0,0,1,1-1h4a1,1,0,0,1,1,1v4a1,1,0,0,1-1,1H49a1,1,0,0,1-1-1Zm0,7a1,1,0,0,1,1-1h4a1,1,0,0,1,1,1v4a1,1,0,0,1-1,1H49a1,1,0,0,1-1-1ZM10,33a1,1,0,0,1,1-1h4a1,1,0,0,1,1,1v4a1,1,0,0,1-1,1H11a1,1,0,0,1-1-1Zm0,7a1,1,0,0,1,1-1h4a1,1,0,0,1,1,1v4a1,1,0,0,1-1,1H11a1,1,0,0,1-1-1Zm0,7a1,1,0,0,1,1-1h4a1,1,0,0,1,1,1v4a1,1,0,0,1-1,1H11a1,1,0,0,1-1-1Zm0,7a1,1,0,0,1,1-1h4a1,1,0,0,1,1,1v4a1,1,0,0,1-1,1H11a1,1,0,0,1-1-1ZM3,33a1,1,0,0,1,1-1H8a1,1,0,0,1,1,1v4a1,1,0,0,1-1,1H4a1,1,0,0,1-1-1Zm0,7a1,1,0,0,1,1-1H8a1,1,0,0,1,1,1v4a1,1,0,0,1-1,1H4a1,1,0,0,1-1-1Zm0,7a1,1,0,0,1,1-1H8a1,1,0,0,1,1,1v4a1,1,0,0,1-1,1H4a1,1,0,0,1-1-1Zm0,7a1,1,0,0,1,1-1H8a1,1,0,0,1,1,1v4a1,1,0,0,1-1,1H4a1,1,0,0,1-1-1ZM36,21a1,1,0,0,1,1-1h4a1,1,0,0,1,1,1v4a1,1,0,0,1-1,1H37a1,1,0,0,1-1-1Zm0,7a1,1,0,0,1,1-1h4a1,1,0,0,1,1,1v4a1,1,0,0,1-1,1H37a1,1,0,0,1-1-1Zm0,7a1,1,0,0,1,1-1h4a1,1,0,0,1,1,1v4a1,1,0,0,1-1,1H37a1,1,0,0,1-1-1Zm0,7a1,1,0,0,1,1-1h4a1,1,0,0,1,1,1v4a1,1,0,0,1-1,1H37a1,1,0,0,1-1-1ZM29,21a1,1,0,0,1,1-1h4a1,1,0,0,1,1,1v4a1,1,0,0,1-1,1H30a1,1,0,0,1-1-1Zm0,7a1,1,0,0,1,1-1h4a1,1,0,0,1,1,1v4a1,1,0,0,1-1,1H30a1,1,0,0,1-1-1Zm0,7a1,1,0,0,1,1-1h4a1,1,0,0,1,1,1v4a1,1,0,0,1-1,1H30a1,1,0,0,1-1-1Zm0,7a1,1,0,0,1,1-1h4a1,1,0,0,1,1,1v4a1,1,0,0,1-1,1H30a1,1,0,0,1-1-1ZM22,21a1,1,0,0,1,1-1h4a1,1,0,0,1,1,1v4a1,1,0,0,1-1,1H23a1,1,0,0,1-1-1Zm0,7a1,1,0,0,1,1-1h4a1,1,0,0,1,1,1v4a1,1,0,0,1-1,1H23a1,1,0,0,1-1-1Zm0,7a1,1,0,0,1,1-1h4a1,1,0,0,1,1,1v4a1,1,0,0,1-1,1H23a1,1,0,0,1-1-1Zm0,7a1,1,0,0,1,1-1h4a1,1,0,0,1,1,1v4a1,1,0,0,1-1,1H23a1,1,0,0,1-1-1ZM36,62V55H33v7H31V55H28v7H26V50a1,1,0,0,1,1-1H37a1,1,0,0,1,1,1V62Z" style="fill:#1b1b1e"/><rect x="24" y="36" width="2" height="2" style="fill:#1b1b1e"/><rect x="31" y="29" width="2" height="2" style="fill:#1b1b1e"/><rect x="28" y="51" width="8" height="2" style="fill:#1b1b1e"/><rect x="31" y="36" width="2" height="2" style="fill:#1b1b1e"/><rect x="24" y="22" width="2" height="2" style="fill:#1b1b1e"/><rect x="31" y="43" width="2" height="2" style="fill:#1b1b1e"/><rect x="31" y="22" width="2" height="2" style="fill:#1b1b1e"/><rect x="38" y="29" width="2" height="2" style="fill:#1b1b1e"/><rect x="24" y="43" width="2" height="2" style="fill:#1b1b1e"/><rect x="24" y="29" width="2" height="2" style="fill:#1b1b1e"/><rect x="38" y="22" width="2" height="2" style="fill:#1b1b1e"/><rect x="38" y="43" width="2" height="2" style="fill:#1b1b1e"/><rect x="38" y="36" width="2" height="2" style="fill:#1b1b1e"/><rect x="57" y="48" width="2" height="2" style="fill:#1b1b1e"/><rect x="50" y="48" width="2" height="2" style="fill:#1b1b1e"/><rect x="57" y="55" width="2" height="2" style="fill:#1b1b1e"/><rect x="50" y="55" width="2" height="2" style="fill:#1b1b1e"/><rect x="57" y="34" width="2" height="2" style="fill:#1b1b1e"/><rect x="50" y="34" width="2" height="2" style="fill:#1b1b1e"/><rect x="57" y="41" width="2" height="2" style="fill:#1b1b1e"/><rect x="50" y="41" width="2" height="2" style="fill:#1b1b1e"/><rect x="5" y="48" width="2" height="2" style="fill:#1b1b1e"/><rect x="12" y="48" width="2" height="2" style="fill:#1b1b1e"/><rect x="5" y="55" width="2" height="2" style="fill:#1b1b1e"/><rect x="12" y="55" width="2" height="2" style="fill:#1b1b1e"/><rect x="5" y="34" width="2" height="2" style="fill:#1b1b1e"/><rect x="12" y="34" width="2" height="2" style="fill:#1b1b1e"/><rect x="5" y="41" width="2" height="2" style="fill:#1b1b1e"/><rect x="12" y="41" width="2" height="2" style="fill:#1b1b1e"/></g></svg>